<?xml version="1.0" encoding="utf-8"?>
<!-- Generator: Adobe Illustrator 24.3.0, SVG Export Plug-In . SVG Version: 6.00 Build 0)  -->
<svg version="1.1" id="Layer_1" xmlns="http://www.w3.org/2000/svg" xmlns:xlink="http://www.w3.org/1999/xlink" x="0px" y="0px"
	 viewBox="0 0 402.47 319.68" style="enable-background:new 0 0 402.47 319.68;" xml:space="preserve">
<style type="text/css">
	.st0{fill:#201B59;}
	.st1{fill:#27246B;}
	.st2{fill:#140A47;}
	.st3{fill:#808184;}
	.st4{fill:url(#SVGID_1_);}
	.st5{fill:#262262;}
	.st6{fill:#FFFFFF;}
	.st7{fill-rule:evenodd;clip-rule:evenodd;fill:#201B59;}
</style>
<path class="st0" d="M395.28,288.9c-85,35.5-303.52,30-383.34-112.42l23.22-17.69c88.25,137.01,291.08,131.51,351.3,101.84
	C386.45,260.62,390.44,274.34,395.28,288.9z"/>
<path class="st1" d="M241.11,22v223.05c-8.51-1.77-17.23-3.76-25.96-6.19c-14.58-3.87-28.39-8.62-41.43-13.81V47.41
	c0-4.09,4.42-7.07,6.74-8.29c1.33-0.66,2.87-1.55,4.53-2.32v106.83c0,1.88,1.55,3.31,3.31,3.31c1.88,0,3.31-1.44,3.31-3.31V33.38
	c2.87-1.55,5.97-3.09,9.17-4.64v139.09c0,1.88,1.55,3.31,3.31,3.31c1.88,0,3.31-1.44,3.31-3.31V25.42c3.09-1.55,6.19-3.09,9.17-4.42
	v174c0,1.88,1.44,3.31,3.31,3.31c1.88,0,3.32-1.44,3.32-3.31V17.69c3.54-1.66,6.74-3.09,9.39-4.2c2.45-1.07,8.51-3.4,8.51-3.4
	S241.11,19.99,241.11,22z"/>
<path class="st2" d="M215.17,238.91c8.75,2.38,17.41,4.41,25.94,6.13l0-10.41c-8.53-1.72-17.2-3.75-25.94-6.13
	c-14.57-3.96-28.39-8.68-41.46-13.86v10.4C186.78,230.24,200.6,234.95,215.17,238.91z"/>
<path class="st1" d="M161.48,219.96v-82.17c0-2.16,0-11.73,0-11.73l-8.47,3.26c0,0-52.67,21.41-53.67,21.81
	c-3.09,1.27-5.26,4.3-5.26,7.84v19.26C110.67,193.36,133.86,207.81,161.48,219.96z"/>
<path class="st2" d="M161.48,219.96v-10.4c-27.62-12.15-50.81-26.6-67.4-41.73v10.4C110.67,193.36,133.86,207.81,161.48,219.96z"/>
<path class="st3" d="M354.34,143.66v33.24c16.7,16.67,24.73,33.94,20.58,49.22c-0.14,0.5-0.42,0.94-0.58,1.44
	c8.39-5.64,14.2-12.59,16.47-20.93C396.13,187.09,381.61,164.3,354.34,143.66z"/>
<path class="st3" d="M173.71,93.43c-48.56-0.93-85.22,11.74-93.05,35.72c19.32-12.98,53.06-18.52,93.05-15.48V93.43z"/>
<path class="st3" d="M354.34,176.9c3.54,3.54,6.6,7.1,9.33,10.67v-36.31c-2.92-2.56-6.02-5.09-9.33-7.6V176.9z"/>
<path class="st3" d="M173.71,93.43c-4.93-0.09-9.71-0.01-14.38,0.17v19.35c4.69,0.12,9.48,0.35,14.38,0.72V93.43z"/>
<linearGradient id="SVGID_1_" gradientUnits="userSpaceOnUse" x1="226.192" y1="180.1456" x2="122.6209" y2="267.1455">
	<stop  offset="0" style="stop-color:#BBBDBF"/>
	<stop  offset="0.1993" style="stop-color:#B4B5B7"/>
	<stop  offset="0.4513" style="stop-color:#A2A3A5"/>
	<stop  offset="0.7303" style="stop-color:#898A8C"/>
	<stop  offset="1" style="stop-color:#6E6F71"/>
</linearGradient>
<path class="st4" d="M215.17,238.91c-92.67-25.2-158.94-78.23-148.01-118.43c0.15-0.54,0.45-1.02,0.62-1.55
	c-9.06,6.09-15.34,13.6-17.79,22.61c-10.93,40.2,55.33,93.23,148,118.43c91.43,24.86,174.27,13.31,186.98-25.61
	C353.6,255.45,287.08,258.47,215.17,238.91z"/>
<g>
	<path class="st5" d="M58.1,138.9c-0.17,1.54-0.12,3.09,0,4.63c0.13,1.54,0.35,3.07,0.65,4.58l-0.37,0.07
		c-0.24-1.54-0.4-3.09-0.47-4.64C57.86,142,57.87,140.43,58.1,138.9z"/>
	<path class="st5" d="M65.16,165.2c2.93,5.35,6.5,10.32,10.45,14.96l-1.16,0.96c-3.86-4.82-7.33-9.97-10.14-15.48L65.16,165.2z"/>
	<path class="st5" d="M88.44,193.18c4.56,4.04,9.4,7.76,14.41,11.25l-1.28,1.8c-5-3.62-9.83-7.48-14.38-11.66L88.44,193.18z"/>
	<path class="st5" d="M118.32,214.21c5.29,3.04,10.67,5.95,16.14,8.66l-1.24,2.46c-5.49-2.8-10.91-5.74-16.2-8.93L118.32,214.21z"/>
	<polygon class="st5" points="151.1,230.54 168.12,237.36 167.06,240.18 149.94,233.22 	"/>
	<polygon class="st5" points="185.44,243.36 203.02,248.57 202.22,251.54 184.5,246.28 	"/>
	<polygon class="st5" points="220.82,253.02 238.79,256.63 238.29,259.52 220.16,255.96 	"/>
	<path class="st5" d="M256.91,259.41c6.06,0.77,12.15,1.36,18.24,1.81l-0.16,2.55c-6.15-0.34-12.29-0.91-18.41-1.62L256.91,259.41z"
		/>
	<path class="st5" d="M293.47,261.98c6.11,0.05,12.22-0.12,18.32-0.55l0.15,1.87c-6.14,0.55-12.3,0.83-18.46,0.9L293.47,261.98z"/>
	<path class="st5" d="M329.98,259.3c6.03-0.99,12.01-2.3,17.88-4.03l0.29,0.92c-5.85,1.92-11.84,3.43-17.9,4.61L329.98,259.3z"/>
	<path class="st5" d="M364.97,248.7c2.79-1.34,5.51-2.82,8.15-4.45c-2.57,1.73-5.24,3.33-7.98,4.79L364.97,248.7z"/>
</g>
<g>
	<path class="st6" d="M39.63,173.66l1.56,2.81l-14.89,8.28l-1.56-2.81L39.63,173.66z M28.12,181.67l2.64,4.75
		c0.36,0.64,0.79,1.05,1.29,1.23c0.51,0.18,1.04,0.11,1.6-0.2l0.03-0.02c0.38-0.21,0.65-0.47,0.83-0.77
		c0.18-0.31,0.25-0.65,0.23-1.03c-0.03-0.38-0.16-0.78-0.4-1.21l-2.64-4.75l2.7-1.5l2.64,4.75c0.32,0.58,0.72,0.95,1.19,1.1
		c0.47,0.15,0.97,0.08,1.5-0.21c0.48-0.27,0.76-0.63,0.85-1.1c0.09-0.47-0.03-0.99-0.35-1.57l-2.64-4.75l2.7-1.5l2.69,4.84
		c0.53,0.96,0.83,1.87,0.9,2.73c0.06,0.86-0.11,1.63-0.52,2.33c-0.41,0.69-1.03,1.27-1.88,1.74c-0.58,0.32-1.16,0.49-1.73,0.51
		c-0.57,0.02-1.13-0.11-1.66-0.39c-0.53-0.28-1.02-0.69-1.46-1.25c0.27,0.7,0.39,1.38,0.34,2.02c-0.05,0.64-0.26,1.22-0.62,1.74
		s-0.87,0.96-1.53,1.33l-0.03,0.02c-0.85,0.47-1.68,0.7-2.49,0.68c-0.81-0.02-1.56-0.29-2.26-0.8c-0.7-0.51-1.32-1.25-1.85-2.21
		l-2.79-5.02L28.12,181.67z"/>
	<path class="st6" d="M46.95,186.37l1.91,2.58L35.15,199.1l-1.91-2.58L46.95,186.37z M42.07,196.04l2.48,2.44l-3.64,8.4l-2.31-3.13
		L42.07,196.04z M42,191.63l3.53,4.77c0.19,0.26,0.43,0.45,0.71,0.55c0.28,0.1,0.58,0.12,0.91,0.05c0.33-0.07,0.65-0.22,0.98-0.45
		c0.32-0.24,0.56-0.5,0.72-0.79c0.16-0.29,0.24-0.59,0.22-0.88c-0.02-0.3-0.13-0.58-0.33-0.85l-3.53-4.77l2.49-1.84l3.68,4.97
		c0.56,0.75,0.88,1.54,0.96,2.36c0.08,0.82-0.07,1.62-0.45,2.39c-0.39,0.77-0.99,1.46-1.8,2.06c-0.82,0.6-1.65,0.98-2.5,1.12
		c-0.85,0.14-1.66,0.05-2.42-0.27c-0.76-0.32-1.42-0.86-1.98-1.61l-3.68-4.97L42,191.63z"/>
	<path class="st6" d="M45.38,210.99c-0.26-1.04-0.21-2.08,0.14-3.1c0.35-1.02,0.98-1.96,1.9-2.8l3.55-3.27
		c0.92-0.85,1.9-1.4,2.95-1.67s2.08-0.22,3.1,0.12c1.02,0.34,1.95,0.96,2.78,1.87c0.84,0.91,1.38,1.88,1.64,2.93
		c0.26,1.04,0.21,2.08-0.14,3.1s-0.98,1.96-1.9,2.8l-3.55,3.27c-0.92,0.85-1.9,1.4-2.95,1.67c-1.05,0.26-2.08,0.22-3.1-0.12
		c-1.02-0.34-1.95-0.96-2.78-1.87C46.18,213.01,45.63,212.04,45.38,210.99z M50.68,212.62c0.48,0.15,0.96,0.17,1.46,0.04
		c0.49-0.13,0.96-0.4,1.4-0.8l3.67-3.38c0.44-0.4,0.74-0.84,0.91-1.33c0.17-0.48,0.2-0.97,0.09-1.46c-0.12-0.49-0.37-0.95-0.76-1.37
		c-0.39-0.43-0.83-0.72-1.3-0.87c-0.48-0.16-0.96-0.17-1.46-0.04c-0.5,0.13-0.96,0.4-1.4,0.8l-3.67,3.38
		c-0.44,0.4-0.74,0.84-0.91,1.33c-0.17,0.48-0.2,0.97-0.09,1.46c0.11,0.49,0.37,0.95,0.76,1.37
		C49.77,212.17,50.2,212.46,50.68,212.62z"/>
	<path class="st6" d="M66.74,211.38l2.36,2.18l-10.61,11.5l-2.36-2.18L66.74,211.38z M64.27,207.21l9.18,8.47l-2.1,2.27l-9.18-8.47
		L64.27,207.21z"/>
	<path class="st6" d="M74.53,216.58l2.52,1.99l-10.58,13.36l-2.52-1.99L74.53,216.58z M71.32,223.02l7.78,6.16l-1.92,2.43
		l-7.78-6.16L71.32,223.02z M81.84,222.37l2.52,1.99l-10.58,13.36l-2.52-1.99L81.84,222.37z"/>
	<path class="st6" d="M87.04,226.28l2.65,1.81l-9.62,14.06l-2.65-1.81L87.04,226.28z M80.13,238.45l8.46,5.79l-1.75,2.55L78.38,241
		L80.13,238.45z M84.03,232.74l7.4,5.06l-1.75,2.55l-7.4-5.06L84.03,232.74z M88,226.94l8.46,5.79l-1.75,2.55l-8.46-5.79L88,226.94z
		"/>
	<path class="st6" d="M98.62,234.08l2.76,1.65l-8.76,14.63l-2.75-1.65L98.62,234.08z M96.06,240.82l5.09,3.05
		c0.28,0.17,0.57,0.25,0.87,0.23c0.3-0.01,0.58-0.11,0.86-0.3c0.27-0.19,0.52-0.46,0.73-0.79c0.2-0.34,0.33-0.68,0.37-1.01
		c0.04-0.33-0.01-0.63-0.14-0.9c-0.13-0.27-0.34-0.49-0.63-0.66l-5.09-3.05l1.59-2.65l5.31,3.18c0.8,0.48,1.4,1.09,1.8,1.81
		c0.39,0.73,0.56,1.52,0.5,2.38c-0.06,0.86-0.35,1.73-0.87,2.6c-0.52,0.87-1.15,1.54-1.88,2c-0.73,0.46-1.51,0.69-2.34,0.68
		c-0.83-0.01-1.64-0.25-2.44-0.72l-5.31-3.18L96.06,240.82z M97.82,244.87l3.22,1.3l-0.13,9.16l-3.34-2L97.82,244.87z"/>
	<path class="st6" d="M106.08,258.02c-0.61-0.51-1.14-1.06-1.6-1.66c-0.46-0.6-0.82-1.22-1.09-1.87l2.55-1.65
		c0.33,0.78,0.8,1.51,1.43,2.17c0.62,0.66,1.33,1.2,2.13,1.63c0.92,0.49,1.73,0.71,2.4,0.67c0.68-0.04,1.17-0.35,1.47-0.93
		l0.01-0.01c0.21-0.4,0.27-0.78,0.16-1.13c-0.1-0.36-0.31-0.69-0.62-0.99c-0.31-0.3-0.72-0.65-1.25-1.05
		c-0.02-0.02-0.03-0.03-0.05-0.04c-0.02-0.01-0.04-0.02-0.05-0.04l-0.21-0.15c-0.93-0.69-1.66-1.33-2.19-1.92s-0.88-1.3-1.03-2.15
		c-0.15-0.84,0.07-1.81,0.65-2.91l0.01-0.01c0.52-0.97,1.17-1.69,1.97-2.15c0.8-0.46,1.71-0.65,2.73-0.58
		c1.02,0.08,2.12,0.42,3.29,1.05c0.54,0.28,1.06,0.64,1.55,1.06c0.5,0.42,0.95,0.89,1.37,1.41c0.41,0.52,0.78,1.07,1.08,1.66
		l-2.47,1.77c-0.37-0.71-0.81-1.34-1.33-1.89c-0.51-0.56-1.06-0.99-1.64-1.29c-0.87-0.46-1.62-0.67-2.25-0.64
		c-0.63,0.04-1.08,0.31-1.35,0.83l-0.01,0.01c-0.23,0.43-0.29,0.84-0.17,1.23c0.12,0.38,0.32,0.73,0.63,1.04
		c0.3,0.31,0.75,0.71,1.35,1.19c0.02,0.02,0.05,0.04,0.08,0.06c0.03,0.02,0.05,0.04,0.07,0.06c0.04,0.03,0.07,0.06,0.1,0.09
		c0.03,0.03,0.07,0.06,0.11,0.09c0.85,0.69,1.53,1.34,2.03,1.94c0.5,0.6,0.8,1.31,0.92,2.13c0.12,0.82-0.1,1.74-0.64,2.76
		l-0.01,0.02c-0.51,0.96-1.17,1.66-1.98,2.11c-0.81,0.45-1.74,0.62-2.79,0.53c-1.05-0.1-2.18-0.46-3.39-1.1
		C107.35,258.97,106.69,258.52,106.08,258.02z"/>
	<path class="st6" d="M125.71,267.81l-3.02-1.39l7.12-15.48l3.02,1.39L125.71,267.81z"/>
	<path class="st6" d="M135.79,253.72l3.62,1.51l0.82,14.49l-0.38,0.17l5.15-12.33l2.83,1.18l-6.56,15.71l-3.64-1.52l-0.87-14.3
		l0.38-0.17l-5.07,12.14l-2.83-1.18L135.79,253.72z"/>
	<path class="st6" d="M151.09,259.98l3.01,1.11l-5.89,15.99l-3.01-1.11L151.09,259.98z M149.7,267.13l8.19,3.02l-1.07,2.9
		l-8.19-3.02L149.7,267.13z M152.19,260.39l9.4,3.46l-1.07,2.9l-9.4-3.46L152.19,260.39z"/>
	<path class="st6" d="M163.7,264.56l3.05,0.99l-5.25,16.22l-3.06-0.99L163.7,264.56z M162.73,271.71l5.64,1.83
		c0.31,0.1,0.61,0.11,0.9,0.03c0.29-0.08,0.54-0.24,0.77-0.49c0.22-0.25,0.4-0.56,0.53-0.94c0.12-0.38,0.17-0.74,0.13-1.07
		c-0.04-0.33-0.15-0.62-0.33-0.85c-0.19-0.23-0.44-0.4-0.76-0.5l-5.64-1.83l0.95-2.94l5.89,1.91c0.89,0.29,1.61,0.74,2.16,1.36
		c0.55,0.62,0.89,1.36,1.02,2.21c0.13,0.85,0.04,1.76-0.27,2.73c-0.31,0.97-0.77,1.75-1.38,2.37c-0.61,0.61-1.32,1.01-2.13,1.19
		c-0.81,0.18-1.66,0.13-2.54-0.16l-5.89-1.9L162.73,271.71z M165.35,275.25l3.43,0.54l1.93,8.95l-3.7-1.2L165.35,275.25z"/>
	<path class="st6" d="M182.49,270.39l1.96,0.55l1.66,18.17l-3.33-0.94l-0.78-12.31l-7.08,10.1l-3.33-0.94L182.49,270.39z
		 M176.2,280.27l8.63,2.43l-0.84,2.98l-8.63-2.43L176.2,280.27z"/>
	<path class="st6" d="M192.52,273.15l3.82,0.91l3.15,14.17l-0.35,0.23l3.09-13l2.99,0.71l-3.94,16.57l-3.84-0.91l-3.17-13.97
		l0.34-0.23l-3.04,12.8l-2.99-0.71L192.52,273.15z"/>
	<path class="st6" d="M208.3,294.18l-3.26-0.68l3.45-16.68l3.26,0.67L208.3,294.18z"/>
	<path class="st6" d="M215.02,278.18l3.16,0.56l-2.99,16.79l-3.16-0.56L215.02,278.18z M215.03,285.39l5.84,1.04
		c0.32,0.06,0.62,0.03,0.9-0.09c0.28-0.12,0.51-0.31,0.69-0.59c0.19-0.28,0.32-0.61,0.4-1c0.07-0.39,0.06-0.75-0.02-1.07
		c-0.08-0.32-0.23-0.59-0.45-0.79c-0.22-0.21-0.49-0.34-0.82-0.4l-5.84-1.04l0.54-3.05l6.09,1.09c0.92,0.17,1.7,0.52,2.32,1.06
		c0.63,0.54,1.06,1.22,1.31,2.05c0.25,0.83,0.28,1.74,0.11,2.74s-0.53,1.84-1.05,2.53c-0.52,0.69-1.17,1.18-1.95,1.47
		c-0.78,0.29-1.62,0.35-2.54,0.19l-6.09-1.09L215.03,285.39z M218.11,288.55l3.47,0.07l3.13,8.6l-3.83-0.68L218.11,288.55z"/>
	<path class="st6" d="M240.77,282.27l4.19,0.56l-2.27,16.89l-2.89-0.39l1.76-13.11l0.02,0.76l-4.64,10.05l-2.81-0.38l-1.85-10.69
		l0.25-0.96l-1.76,13.11l-2.89-0.39l2.27-16.89l4.19,0.56l1.69,11.81L240.77,282.27z"/>
	<path class="st6" d="M253.03,283.6l2.03,0.18l4.96,17.55l-3.44-0.31l-3.02-11.96l-5.1,11.22l-3.44-0.31L253.03,283.6z
		 M248.66,294.46l8.93,0.8l-0.28,3.08l-8.93-0.8L248.66,294.46z"/>
	<path class="st6" d="M263.39,284.47l3.92,0.18l5.73,13.33l-0.29,0.29l0.61-13.35l3.07,0.14l-0.78,17.01l-3.95-0.18l-5.72-13.13
		l0.29-0.29l-0.6,13.15l-3.07-0.14L263.39,284.47z"/>
	<path class="st6" d="M286.2,285.18l3.21-0.06l0.33,17.04l-3.21,0.06L286.2,285.18z M287.81,292.49l5.45-0.1
		c0.38-0.01,0.72-0.1,1.01-0.28c0.29-0.18,0.51-0.43,0.67-0.76c0.16-0.32,0.23-0.69,0.22-1.11c-0.01-0.42-0.09-0.79-0.26-1.11
		c-0.17-0.32-0.4-0.57-0.69-0.74s-0.64-0.25-1.03-0.24l-5.45,0.1l-0.06-3.09l5.37-0.1c1.06-0.02,2,0.18,2.82,0.6
		c0.82,0.42,1.46,1.02,1.92,1.8c0.46,0.78,0.7,1.69,0.72,2.73c0.02,1.04-0.18,1.96-0.61,2.75c-0.43,0.79-1.05,1.41-1.85,1.86
		c-0.8,0.45-1.73,0.68-2.79,0.7l-5.37,0.1L287.81,292.49z"/>
	<path class="st6" d="M299.1,284.93l3.3-0.22l4.36,11.1l2.87-11.58l3.3-0.22l-4.54,17.37l-2.5,0.17L299.1,284.93z"/>
	<path class="st6" d="M313.64,283.95l12.41-1.44l0.36,3.07L314,287.02L313.64,283.95z M318.41,284.8l3.19-0.37l1.8,15.54l-3.19,0.37
		L318.41,284.8z"/>
	<path class="st6" d="M327.56,296.19l3.18-0.46l0.46,3.18l-3.18,0.46L327.56,296.19z"/>
	<path class="st6" d="M337.64,280.57l3.14-0.67l3.57,16.66l-3.14,0.67L337.64,280.57z M341.96,293.91l9.76-2.09l0.65,3.03
		l-9.76,2.09L341.96,293.91z"/>
	<path class="st6" d="M347.76,278.44l12.05-3.31l0.82,2.98l-12.05,3.31L347.76,278.44z M352.61,278.55l3.1-0.85l4.14,15.09
		l-3.1,0.85L352.61,278.55z"/>
	<path class="st6" d="M361.12,274.72l3.02-1.08l5.76,16.04l-3.02,1.08L361.12,274.72z M367.36,287.3l3.85-1.38
		c0.99-0.36,1.67-0.87,2.05-1.54c0.37-0.67,0.4-1.45,0.09-2.32l-1.69-4.72c-0.31-0.88-0.83-1.45-1.54-1.74s-1.57-0.25-2.56,0.11
		l-3.85,1.38l-1.05-2.91l3.78-1.36c1.34-0.48,2.56-0.67,3.67-0.56c1.11,0.11,2.06,0.51,2.86,1.19s1.42,1.63,1.86,2.85l1.63,4.54
		c0.42,1.15,0.54,2.25,0.37,3.28c-0.17,1.03-0.64,1.96-1.41,2.77c-0.78,0.82-1.85,1.47-3.23,1.97l-3.77,1.35L367.36,287.3z"/>
	<path class="st6" d="M379.59,282.56l2.95-1.27l1.27,2.95l-2.95,1.27L379.59,282.56z"/>
</g>
<path class="st7" d="M354.21,119.12c-10.82-16.31-22.47-29.24-35.4-44.6c0,0-25.91,14.28-77.72,42.83c0,3.67,0,6.86,0,9.57
	c7.09-3.66,32.69-16.89,76.8-39.68c0,0,12.09,12.72,36.27,38.16C354.16,125.4,354.18,123.31,354.21,119.12"/>
<path class="st7" d="M354.21,141.55c-10.82-14.57-22.47-26.12-35.4-39.83c0,0-25.91,12.75-77.72,38.25c0,3.27,0,6.12,0,8.55
	c7.09-3.27,32.69-15.09,76.8-35.44c0,0,12.09,11.36,36.27,34.08C354.16,147.17,354.18,145.29,354.21,141.55z"/>
<path class="st7" d="M354.21,164.04c-10.82-12.72-22.47-22.81-35.4-34.78c0,0-25.91,11.13-77.72,33.4c0,2.86,0,5.35,0,7.47
	c7.09-2.86,32.69-13.17,76.8-30.95c0,0,12.09,9.92,36.27,29.76C354.16,168.94,354.18,167.31,354.21,164.04z"/>
<path class="st7" d="M354.21,185.43c-10.82-13.18-22.47-23.63-35.4-36.03c0,0-25.91,11.53-77.72,34.6c0,2.96,0,5.54,0,7.73
	c7.09-2.96,32.69-13.65,76.8-32.06c0,0,12.09,10.28,36.27,30.83C354.16,190.5,354.18,188.81,354.21,185.43z"/>
<path class="st7" d="M354.21,208.02c-10.82-11.11-22.47-19.93-35.4-30.39c0,0-25.91,9.73-77.72,29.19c0,2.5,0,4.67,0,6.52
	c7.09-2.5,32.69-11.51,76.8-27.04c0,0,12.09,8.67,36.27,26C354.16,212.3,354.18,210.87,354.21,208.02z"/>
<path class="st7" d="M354.21,231.09c-10.82-8.05-22.47-14.43-35.4-22.01c0,0-25.91,7.04-77.72,21.13c0,1.81,0,3.38,0,4.72
	c7.09-1.81,32.69-8.33,76.8-19.58c0,0,12.09,6.28,36.27,18.83C354.16,234.19,354.18,233.15,354.21,231.09z"/>
<path class="st7" d="M241.09,104.31c7.09-4.16,32.69-19.21,76.8-45.12c0,0,12.09,14.46,36.27,43.39l0.18-24.17
	c0,0-8.73,3.5-8.14,3.29v0c0,0-9.13-12.33-27.39-36.98c0,0-25.91,16.23-77.72,48.7C241.09,97.59,241.09,101.22,241.09,104.31z"/>
<path class="st2" d="M241.09,234.64l0.02,10.41c37.99,8.22,80.66,10.07,112.57,2.07l0.48-12.93
	C324.21,241.45,284.66,242,241.09,234.64z"/>
</svg>
